<svg width="372" height="83" viewBox="0 0 372 83" fill="none" xmlns="http://www.w3.org/2000/svg">
<path d="M118.96 68.94V68.4H123.78V68.94L122.68 69.04C122.467 69.0667 122.34 69.12 122.3 69.2C122.26 69.28 122.24 69.5533 122.24 70.02V80.38C122.24 80.8467 122.26 81.12 122.3 81.2C122.34 81.28 122.467 81.3333 122.68 81.36L123.78 81.48V82H118.96V81.48L120.06 81.36C120.273 81.3333 120.4 81.28 120.44 81.2C120.48 81.12 120.5 80.8467 120.5 80.38V70.02C120.5 69.5533 120.48 69.28 120.44 69.2C120.4 69.12 120.273 69.0667 120.06 69.04L118.96 68.94ZM143.158 81.48V82H138.338V81.48L139.438 81.36C139.652 81.3333 139.778 81.28 139.818 81.2C139.858 81.1067 139.878 80.8333 139.878 80.38V69.54L135.718 80.4H134.358L130.178 69.54V80.38C130.178 80.8333 130.198 81.1067 130.238 81.2C130.278 81.28 130.405 81.3333 130.618 81.36L131.718 81.48V82H127.898V81.48L128.998 81.36C129.212 81.3333 129.338 81.28 129.378 81.2C129.418 81.1067 129.438 80.8333 129.438 80.38V70.02C129.438 69.5667 129.418 69.3 129.378 69.22C129.338 69.1267 129.212 69.0667 128.998 69.04L127.898 68.94V68.4H131.558L135.578 78.9L139.598 68.4H143.158V68.94L142.058 69.04C141.845 69.0667 141.718 69.1267 141.678 69.22C141.638 69.3 141.618 69.5667 141.618 70.02V80.38C141.618 80.8333 141.638 81.1067 141.678 81.2C141.718 81.28 141.845 81.3333 142.058 81.36L143.158 81.48ZM162.565 81.48V82H157.745V81.48L158.845 81.36C159.059 81.3333 159.185 81.28 159.225 81.2C159.265 81.1067 159.285 80.8333 159.285 80.38V69.54L155.125 80.4H153.765L149.585 69.54V80.38C149.585 80.8333 149.605 81.1067 149.645 81.2C149.685 81.28 149.812 81.3333 150.025 81.36L151.125 81.48V82H147.305V81.48L148.405 81.36C148.619 81.3333 148.745 81.28 148.785 81.2C148.825 81.1067 148.845 80.8333 148.845 80.38V70.02C148.845 69.5667 148.825 69.3 148.785 69.22C148.745 69.1267 148.619 69.0667 148.405 69.04L147.305 68.94V68.4H150.965L154.985 78.9L159.005 68.4H162.565V68.94L161.465 69.04C161.252 69.0667 161.125 69.1267 161.085 69.22C161.045 69.3 161.025 69.5667 161.025 70.02V80.38C161.025 80.8333 161.045 81.1067 161.085 81.2C161.125 81.28 161.252 81.3333 161.465 81.36L162.565 81.48ZM177.592 74.44V75.94C177.592 77.8867 177.146 79.42 176.252 80.54C175.359 81.6467 174.079 82.2 172.412 82.2C170.732 82.2 169.446 81.6467 168.552 80.54C167.672 79.42 167.232 77.8867 167.232 75.94V74.44C167.232 72.5067 167.672 70.9867 168.552 69.88C169.446 68.76 170.732 68.2 172.412 68.2C174.079 68.2 175.359 68.76 176.252 69.88C177.146 70.9867 177.592 72.5067 177.592 74.44ZM175.692 73.44C175.692 71.7733 175.412 70.5933 174.852 69.9C174.306 69.1933 173.492 68.84 172.412 68.84C171.332 68.84 170.512 69.1933 169.952 69.9C169.406 70.5933 169.132 71.7733 169.132 73.44V76.94C169.132 78.6067 169.406 79.7933 169.952 80.5C170.512 81.2067 171.332 81.56 172.412 81.56C173.492 81.56 174.306 81.2067 174.852 80.5C175.412 79.7933 175.692 78.6067 175.692 76.94V73.44ZM182.233 68.94V68.4H187.673C188.979 68.4 189.959 68.7067 190.613 69.32C191.266 69.92 191.593 70.6933 191.593 71.64V72.18C191.593 72.8733 191.386 73.4667 190.973 73.96C190.559 74.4533 189.979 74.8 189.233 75C190.166 75.16 190.893 75.5133 191.413 76.06C191.933 76.6067 192.193 77.2933 192.193 78.12V78.66C192.193 79.6333 191.853 80.4333 191.173 81.06C190.506 81.6867 189.506 82 188.173 82H182.233V81.48L183.333 81.36C183.546 81.3333 183.673 81.28 183.713 81.2C183.753 81.12 183.773 80.8467 183.773 80.38V70.02C183.773 69.5533 183.753 69.28 183.713 69.2C183.673 69.12 183.546 69.0667 183.333 69.04L182.233 68.94ZM187.673 69.04H185.513V74.76H187.673C189.059 74.76 189.753 73.9533 189.753 72.34V71.52C189.753 69.8667 189.059 69.04 187.673 69.04ZM188.173 75.4H185.513V81.36H188.173C189.626 81.36 190.353 80.5 190.353 78.78V77.96C190.353 77.1333 190.166 76.5 189.793 76.06C189.433 75.62 188.893 75.4 188.173 75.4ZM196.542 68.94V68.4H201.362V68.94L200.262 69.04C200.049 69.0667 199.922 69.12 199.882 69.2C199.842 69.28 199.822 69.5533 199.822 70.02V80.38C199.822 80.8467 199.842 81.12 199.882 81.2C199.922 81.28 200.049 81.3333 200.262 81.36L201.362 81.48V82H196.542V81.48L197.642 81.36C197.855 81.3333 197.982 81.28 198.022 81.2C198.062 81.12 198.082 80.8467 198.082 80.38V70.02C198.082 69.5533 198.062 69.28 198.022 69.2C197.982 69.12 197.855 69.0667 197.642 69.04L196.542 68.94ZM214.04 78.7H214.58V82H205.48V81.48L206.58 81.36C206.794 81.3333 206.92 81.28 206.96 81.2C207 81.12 207.02 80.8467 207.02 80.38V70.02C207.02 69.5533 207 69.28 206.96 69.2C206.92 69.12 206.794 69.0667 206.58 69.04L205.48 68.94V68.4H210.3V68.94L209.2 69.04C208.987 69.0667 208.86 69.12 208.82 69.2C208.78 69.28 208.76 69.5533 208.76 70.02V81.36H212.38C212.7 81.36 212.927 81.3533 213.06 81.34C213.194 81.3133 213.28 81.2667 213.32 81.2C213.374 81.12 213.42 81 213.46 80.84L214.04 78.7ZM217.973 68.94V68.4H222.793V68.94L221.693 69.04C221.48 69.0667 221.353 69.12 221.313 69.2C221.273 69.28 221.253 69.5533 221.253 70.02V80.38C221.253 80.8467 221.273 81.12 221.313 81.2C221.353 81.28 221.48 81.3333 221.693 81.36L222.793 81.48V82H217.973V81.48L219.073 81.36C219.287 81.3333 219.413 81.28 219.453 81.2C219.493 81.12 219.513 80.8467 219.513 80.38V70.02C219.513 69.5533 219.493 69.28 219.453 69.2C219.413 69.12 219.287 69.0667 219.073 69.04L217.973 68.94ZM235.972 78.74H236.492V82H226.912V81.48L228.012 81.36C228.225 81.3333 228.352 81.28 228.392 81.2C228.432 81.12 228.452 80.8467 228.452 80.38V70.02C228.452 69.5533 228.432 69.28 228.392 69.2C228.352 69.12 228.225 69.0667 228.012 69.04L226.912 68.94V68.4H236.232V71.66H235.732L235.152 69.56C235.112 69.4 235.065 69.2867 235.012 69.22C234.972 69.14 234.885 69.0933 234.752 69.08C234.618 69.0533 234.392 69.04 234.072 69.04H230.192V74.82H232.872C233.192 74.82 233.418 74.8133 233.552 74.8C233.685 74.7733 233.772 74.7267 233.812 74.66C233.865 74.58 233.912 74.46 233.952 74.3L234.332 72.8H234.852V77.48H234.332L233.952 75.98C233.912 75.82 233.865 75.7067 233.812 75.64C233.772 75.56 233.685 75.5133 233.552 75.5C233.418 75.4733 233.192 75.46 232.872 75.46H230.192V81.36H234.312C234.632 81.36 234.858 81.3533 234.992 81.34C235.125 81.3133 235.212 81.2667 235.252 81.2C235.305 81.12 235.352 81 235.392 80.84L235.972 78.74ZM248.973 68.94V68.4H252.793V68.94L251.693 69.04C251.48 69.0667 251.353 69.1267 251.313 69.22C251.273 69.3 251.253 69.5667 251.253 70.02V82H250.273L242.993 69.72V80.38C242.993 80.8333 243.013 81.1067 243.053 81.2C243.093 81.28 243.22 81.3333 243.433 81.36L244.533 81.48V82H240.713V81.48L241.813 81.36C242.026 81.3333 242.153 81.28 242.193 81.2C242.233 81.1067 242.253 80.8333 242.253 80.38V70.02C242.253 69.5667 242.233 69.3 242.193 69.22C242.153 69.1267 242.026 69.0667 241.813 69.04L240.713 68.94V68.4H244.173L250.513 79.12V70.02C250.513 69.5667 250.493 69.3 250.453 69.22C250.413 69.1267 250.286 69.0667 250.073 69.04L248.973 68.94Z" fill="#1F1F1F"/>
<path d="M2.064 15.704V14.36H15.216V15.704L12.576 16.04C12.064 16.104 11.76 16.248 11.664 16.472C11.568 16.664 11.52 17.304 11.52 18.392V31.304L22.896 18.392C23.824 17.336 24.304 16.696 24.336 16.472C24.4 16.248 24.176 16.104 23.664 16.04L21.024 15.704V14.36H30.768V15.704L28.128 16.04C27.808 16.072 27.552 16.136 27.36 16.232C27.168 16.328 26.928 16.536 26.64 16.856C26.352 17.176 25.888 17.688 25.248 18.392L18.528 25.976L26.832 42.968C27.184 43.64 27.456 44.136 27.648 44.456C27.84 44.776 28.064 44.984 28.32 45.08C28.576 45.176 28.928 45.256 29.376 45.32L31.536 45.656V47H22.416L14.64 30.392L11.52 33.944V42.968C11.52 44.056 11.568 44.712 11.664 44.936C11.76 45.128 12.064 45.256 12.576 45.32L15.216 45.656V47H2.064V45.656L4.704 45.32C5.216 45.256 5.52 45.128 5.616 44.936C5.712 44.712 5.76 44.056 5.76 42.968V18.392C5.76 17.304 5.712 16.664 5.616 16.472C5.52 16.248 5.216 16.104 4.704 16.04L2.064 15.704ZM53.628 15.704V14.36H62.94V15.704L60.3 16.04C59.788 16.104 59.484 16.248 59.388 16.472C59.292 16.664 59.244 17.304 59.244 18.392V35.912C59.244 39.752 58.428 42.648 56.796 44.6C55.196 46.52 52.732 47.48 49.404 47.48C45.532 47.48 42.412 46.424 40.044 44.312C37.676 42.2 36.492 39.16 36.492 35.192V18.392C36.492 17.304 36.444 16.664 36.348 16.472C36.252 16.248 35.948 16.104 35.436 16.04L32.796 15.704V14.36H45.948V15.704L43.308 16.04C42.796 16.104 42.492 16.248 42.396 16.472C42.3 16.664 42.252 17.304 42.252 18.392V35.528C42.252 39.112 42.908 41.704 44.22 43.304C45.532 44.904 47.404 45.704 49.836 45.704C52.204 45.704 54.044 44.952 55.356 43.448C56.668 41.912 57.324 39.432 57.324 36.008V18.392C57.324 17.304 57.276 16.664 57.18 16.472C57.084 16.248 56.78 16.104 56.268 16.04L53.628 15.704ZM97.9125 45.656V47H84.7605V45.656L87.4005 45.32C87.9125 45.256 88.2165 45.128 88.3125 44.936C88.4085 44.712 88.4565 44.056 88.4565 42.968V31.352H75.8325V42.968C75.8325 44.056 75.8805 44.712 75.9765 44.936C76.0725 45.128 76.3765 45.256 76.8885 45.32L79.5285 45.656V47H66.3765V45.656L69.0165 45.32C69.5285 45.256 69.8325 45.128 69.9285 44.936C70.0245 44.712 70.0725 44.056 70.0725 42.968V18.392C70.0725 17.304 70.0245 16.664 69.9285 16.472C69.8325 16.248 69.5285 16.104 69.0165 16.04L66.3765 15.704V14.36H79.5285V15.704L76.8885 16.04C76.3765 16.104 76.0725 16.248 75.9765 16.472C75.8805 16.664 75.8325 17.304 75.8325 18.392V29.672H88.4565V18.392C88.4565 17.304 88.4085 16.664 88.3125 16.472C88.2165 16.248 87.9125 16.104 87.4005 16.04L84.7605 15.704V14.36H97.9125V15.704L95.2725 16.04C94.7605 16.104 94.4565 16.248 94.3605 16.472C94.2645 16.664 94.2165 17.304 94.2165 18.392V42.968C94.2165 44.056 94.2645 44.712 94.3605 44.936C94.4565 45.128 94.7605 45.256 95.2725 45.32L97.9125 45.656ZM122.304 15.704V14.36H131.616V15.704L128.976 16.04C128.464 16.104 128.16 16.248 128.064 16.472C127.968 16.664 127.92 17.304 127.92 18.392V47H125.28L107.664 18.536V42.968C107.664 44.056 107.712 44.712 107.808 44.936C107.904 45.128 108.208 45.256 108.72 45.32L111.36 45.656V47H102.048V45.656L104.688 45.32C105.2 45.256 105.504 45.128 105.6 44.936C105.696 44.712 105.744 44.056 105.744 42.968V18.392C105.744 17.304 105.696 16.664 105.6 16.472C105.504 16.248 105.2 16.104 104.688 16.04L102.048 15.704V14.36H111.696L126 37.352V18.392C126 17.304 125.952 16.664 125.856 16.472C125.76 16.248 125.456 16.104 124.944 16.04L122.304 15.704ZM145.514 45.704C146.986 45.704 148.17 45.24 149.066 44.312C149.962 43.352 150.458 42.104 150.554 40.568C150.65 39.032 150.25 37.384 149.354 35.624L153.626 32.84L159.482 43.688C159.962 44.584 160.314 45.112 160.538 45.272C160.794 45.4 161.178 45.496 161.69 45.56L164.042 45.8V47H155.45L152.282 41.048C152.154 42.808 151.466 44.328 150.218 45.608C149.002 46.856 147.178 47.48 144.746 47.48C141.834 47.48 139.466 46.824 137.642 45.512C135.818 44.2 134.906 42.312 134.906 39.848C134.906 38.792 135.146 37.736 135.626 36.68C136.106 35.624 136.97 34.536 138.218 33.416C139.498 32.296 141.322 31.096 143.69 29.816C141.354 28.824 139.578 27.608 138.362 26.168C137.178 24.728 136.586 23.192 136.586 21.56C136.586 20.248 136.954 19.016 137.69 17.864C138.426 16.68 139.466 15.72 140.81 14.984C142.154 14.248 143.754 13.88 145.609 13.88C147.498 13.88 149.114 14.232 150.458 14.936C151.834 15.608 152.874 16.52 153.578 17.672C154.314 18.792 154.682 20.04 154.682 21.416C154.682 23.368 153.978 25.016 152.57 26.36C151.162 27.704 149.37 28.968 147.194 30.152L145.514 31.064C143.722 32.056 142.458 33.224 141.722 34.568C141.018 35.912 140.666 37.512 140.666 39.368C140.666 41.512 141.098 43.112 141.962 44.168C142.858 45.192 144.042 45.704 145.514 45.704ZM142.346 21.224C142.346 22.504 142.538 23.816 142.922 25.16C143.306 26.504 144.09 27.768 145.273 28.952L145.658 28.76C146.874 28.12 147.722 27.176 148.202 25.928C148.682 24.68 148.922 23.208 148.922 21.512C148.922 19.4 148.618 17.88 148.01 16.952C147.434 16.024 146.65 15.56 145.658 15.56C144.698 15.56 143.898 15.976 143.258 16.808C142.65 17.64 142.346 19.112 142.346 21.224ZM164.955 15.704V14.36H179.403C182.923 14.36 185.547 15.176 187.275 16.808C189.035 18.408 189.915 20.552 189.915 23.24V24.344C189.915 27.032 189.035 29.192 187.275 30.824C185.547 32.456 182.923 33.272 179.403 33.272H174.411V42.968C174.411 44.056 174.459 44.712 174.555 44.936C174.651 45.128 174.955 45.256 175.467 45.32L179.067 45.656V47H164.955V45.656L167.595 45.32C168.107 45.256 168.411 45.128 168.507 44.936C168.603 44.712 168.651 44.056 168.651 42.968V18.392C168.651 17.304 168.603 16.664 168.507 16.472C168.411 16.248 168.107 16.104 167.595 16.04L164.955 15.704ZM179.403 16.04H174.411V31.592H179.403C180.811 31.592 181.883 31.032 182.619 29.912C183.387 28.792 183.771 27.256 183.771 25.304V22.28C183.771 20.328 183.387 18.808 182.619 17.72C181.883 16.6 180.811 16.04 179.403 16.04ZM197.695 45.656V47H188.431V45.656L191.071 45.32C191.423 45.256 191.679 45.192 191.839 45.128C191.999 45.032 192.143 44.824 192.271 44.504C192.399 44.184 192.575 43.672 192.799 42.968L201.967 14.36H206.095L215.311 42.968C215.535 43.672 215.711 44.184 215.839 44.504C215.967 44.824 216.111 45.032 216.271 45.128C216.463 45.192 216.719 45.256 217.039 45.32L219.679 45.656V47H206.431V45.656L209.071 45.32C209.583 45.256 209.855 45.128 209.887 44.936C209.951 44.712 209.807 44.056 209.455 42.968L207.631 37.016H196.543L194.671 42.968C194.351 44.056 194.207 44.712 194.239 44.936C194.271 45.128 194.543 45.256 195.055 45.32L197.695 45.656ZM197.119 35.336H207.103L202.159 19.4L197.119 35.336ZM221.439 15.704V14.36H235.935C239.295 14.36 241.887 15.112 243.711 16.616C245.535 18.12 246.447 20.136 246.447 22.664V23.768C246.447 25.688 245.919 27.32 244.863 28.664C243.807 30.008 242.287 30.968 240.303 31.544L246.303 42.968C246.687 43.672 246.975 44.184 247.167 44.504C247.359 44.824 247.535 45.032 247.695 45.128C247.887 45.192 248.143 45.256 248.463 45.32L250.623 45.656V47H241.647L234.399 32.12H230.895V42.968C230.895 44.056 230.943 44.712 231.039 44.936C231.135 45.128 231.439 45.256 231.951 45.32L234.591 45.656V47H221.439V45.656L224.079 45.32C224.591 45.256 224.895 45.128 224.991 44.936C225.087 44.712 225.135 44.056 225.135 42.968V18.392C225.135 17.304 225.087 16.664 224.991 16.472C224.895 16.248 224.591 16.104 224.079 16.04L221.439 15.704ZM235.935 16.04H230.895V30.44H235.935C237.343 30.44 238.415 30.008 239.151 29.144C239.919 28.248 240.303 26.616 240.303 24.248V22.184C240.303 19.816 239.919 18.2 239.151 17.336C238.415 16.472 237.343 16.04 235.935 16.04ZM250.982 14.36H277.382V22.616H276.038L274.502 17.288C274.406 16.872 274.294 16.584 274.166 16.424C274.07 16.232 273.862 16.12 273.542 16.088C273.222 16.056 272.678 16.04 271.91 16.04H267.062V42.968C267.062 44.056 267.11 44.712 267.206 44.936C267.302 45.128 267.606 45.256 268.118 45.32L270.758 45.656V47H257.606V45.656L260.246 45.32C260.758 45.256 261.062 45.128 261.158 44.936C261.254 44.712 261.302 44.056 261.302 42.968V16.04H256.454C255.718 16.04 255.174 16.056 254.822 16.088C254.502 16.12 254.294 16.232 254.198 16.424C254.102 16.584 253.99 16.872 253.862 17.288L252.326 22.616H250.982V14.36ZM300.289 15.704V14.36H309.601V15.704L306.961 16.04C306.449 16.104 306.145 16.248 306.049 16.472C305.953 16.664 305.905 17.304 305.905 18.392V47H303.265L285.649 18.536V42.968C285.649 44.056 285.697 44.712 285.793 44.936C285.889 45.128 286.193 45.256 286.705 45.32L289.345 45.656V47H280.033V45.656L282.673 45.32C283.185 45.256 283.489 45.128 283.585 44.936C283.681 44.712 283.729 44.056 283.729 42.968V18.392C283.729 17.304 283.681 16.664 283.585 16.472C283.489 16.248 283.185 16.104 282.673 16.04L280.033 15.704V14.36H289.681L303.985 37.352V18.392C303.985 17.304 303.937 16.664 303.841 16.472C303.745 16.248 303.441 16.104 302.929 16.04L300.289 15.704ZM335.402 38.744H336.746V47H312.986V45.656L315.626 45.32C316.138 45.256 316.442 45.128 316.538 44.936C316.634 44.712 316.682 44.056 316.682 42.968V18.392C316.682 17.304 316.634 16.664 316.538 16.472C316.442 16.248 316.138 16.104 315.626 16.04L312.986 15.704V14.36H336.266V22.616H334.922L333.386 17.288C333.29 16.904 333.178 16.632 333.05 16.472C332.954 16.28 332.746 16.168 332.426 16.136C332.106 16.072 331.562 16.04 330.794 16.04H322.442V29.672H327.914C328.682 29.672 329.226 29.656 329.546 29.624C329.866 29.56 330.074 29.448 330.17 29.288C330.298 29.096 330.41 28.808 330.506 28.424L331.562 24.536H332.906V36.488H331.562L330.506 32.6C330.41 32.216 330.298 31.944 330.17 31.784C330.074 31.592 329.866 31.48 329.546 31.448C329.226 31.384 328.682 31.352 327.914 31.352H322.442V45.32H331.274C332.042 45.32 332.586 45.304 332.906 45.272C333.226 45.208 333.434 45.096 333.53 44.936C333.658 44.744 333.77 44.456 333.866 44.072L335.402 38.744ZM341.908 15.704V14.36H356.404C359.764 14.36 362.356 15.112 364.18 16.616C366.004 18.12 366.916 20.136 366.916 22.664V23.768C366.916 25.688 366.388 27.32 365.332 28.664C364.276 30.008 362.756 30.968 360.772 31.544L366.772 42.968C367.156 43.672 367.444 44.184 367.636 44.504C367.828 44.824 368.004 45.032 368.164 45.128C368.356 45.192 368.612 45.256 368.932 45.32L371.092 45.656V47H362.116L354.868 32.12H351.364V42.968C351.364 44.056 351.412 44.712 351.508 44.936C351.604 45.128 351.908 45.256 352.42 45.32L355.06 45.656V47H341.908V45.656L344.548 45.32C345.06 45.256 345.364 45.128 345.46 44.936C345.556 44.712 345.604 44.056 345.604 42.968V18.392C345.604 17.304 345.556 16.664 345.46 16.472C345.364 16.248 345.06 16.104 344.548 16.04L341.908 15.704ZM356.404 16.04H351.364V30.44H356.404C357.812 30.44 358.884 30.008 359.62 29.144C360.388 28.248 360.772 26.616 360.772 24.248V22.184C360.772 19.816 360.388 18.2 359.62 17.336C358.884 16.472 357.812 16.04 356.404 16.04Z" fill="#1F1F1F"/>
</svg>
