<svg width="256" height="512" viewBox="0 0 256 512" fill="none" xmlns="http://www.w3.org/2000/svg">
<rect width="256" height="512" fill="#1F1F1F"/>
<path d="M70.6 305.6V300H125.4V305.6L114.4 307C112.267 307.267 111 307.867 110.6 308.8C110.2 309.6 110 312.267 110 316.8V370.6L157.4 316.8C161.267 312.4 163.267 309.733 163.4 308.8C163.667 307.867 162.733 307.267 160.6 307L149.6 305.6V300H190.2V305.6L179.2 307C177.867 307.133 176.8 307.4 176 307.8C175.2 308.2 174.2 309.067 173 310.4C171.8 311.733 169.867 313.867 167.2 316.8L139.2 348.4L173.8 419.2C175.267 422 176.4 424.067 177.2 425.4C178 426.733 178.933 427.6 180 428C181.067 428.4 182.533 428.733 184.4 429L193.4 430.4V436H155.4L123 366.8L110 381.6V419.2C110 423.733 110.2 426.467 110.6 427.4C111 428.2 112.267 428.733 114.4 429L125.4 430.4V436H70.6V430.4L81.6 429C83.7333 428.733 85 428.2 85.4 427.4C85.8 426.467 86 423.733 86 419.2V316.8C86 312.267 85.8 309.6 85.4 308.8C85 307.867 83.7333 307.267 81.6 307L70.6 305.6Z" fill="white"/>
</svg>
