<svg width="372" height="229" viewBox="0 0 372 229" fill="none" xmlns="http://www.w3.org/2000/svg">
<path d="M118.96 214.94V214.4H123.78V214.94L122.68 215.04C122.467 215.067 122.34 215.12 122.3 215.2C122.26 215.28 122.24 215.553 122.24 216.02V226.38C122.24 226.847 122.26 227.12 122.3 227.2C122.34 227.28 122.467 227.333 122.68 227.36L123.78 227.48V228H118.96V227.48L120.06 227.36C120.273 227.333 120.4 227.28 120.44 227.2C120.48 227.12 120.5 226.847 120.5 226.38V216.02C120.5 215.553 120.48 215.28 120.44 215.2C120.4 215.12 120.273 215.067 120.06 215.04L118.96 214.94ZM143.158 227.48V228H138.338V227.48L139.438 227.36C139.652 227.333 139.778 227.28 139.818 227.2C139.858 227.107 139.878 226.833 139.878 226.38V215.54L135.718 226.4H134.358L130.178 215.54V226.38C130.178 226.833 130.198 227.107 130.238 227.2C130.278 227.28 130.405 227.333 130.618 227.36L131.718 227.48V228H127.898V227.48L128.998 227.36C129.212 227.333 129.338 227.28 129.378 227.2C129.418 227.107 129.438 226.833 129.438 226.38V216.02C129.438 215.567 129.418 215.3 129.378 215.22C129.338 215.127 129.212 215.067 128.998 215.04L127.898 214.94V214.4H131.558L135.578 224.9L139.598 214.4H143.158V214.94L142.058 215.04C141.845 215.067 141.718 215.127 141.678 215.22C141.638 215.3 141.618 215.567 141.618 216.02V226.38C141.618 226.833 141.638 227.107 141.678 227.2C141.718 227.28 141.845 227.333 142.058 227.36L143.158 227.48ZM162.565 227.48V228H157.745V227.48L158.845 227.36C159.059 227.333 159.185 227.28 159.225 227.2C159.265 227.107 159.285 226.833 159.285 226.38V215.54L155.125 226.4H153.765L149.585 215.54V226.38C149.585 226.833 149.605 227.107 149.645 227.2C149.685 227.28 149.812 227.333 150.025 227.36L151.125 227.48V228H147.305V227.48L148.405 227.36C148.619 227.333 148.745 227.28 148.785 227.2C148.825 227.107 148.845 226.833 148.845 226.38V216.02C148.845 215.567 148.825 215.3 148.785 215.22C148.745 215.127 148.619 215.067 148.405 215.04L147.305 214.94V214.4H150.965L154.985 224.9L159.005 214.4H162.565V214.94L161.465 215.04C161.252 215.067 161.125 215.127 161.085 215.22C161.045 215.3 161.025 215.567 161.025 216.02V226.38C161.025 226.833 161.045 227.107 161.085 227.2C161.125 227.28 161.252 227.333 161.465 227.36L162.565 227.48ZM177.592 220.44V221.94C177.592 223.887 177.146 225.42 176.252 226.54C175.359 227.647 174.079 228.2 172.412 228.2C170.732 228.2 169.446 227.647 168.552 226.54C167.672 225.42 167.232 223.887 167.232 221.94V220.44C167.232 218.507 167.672 216.987 168.552 215.88C169.446 214.76 170.732 214.2 172.412 214.2C174.079 214.2 175.359 214.76 176.252 215.88C177.146 216.987 177.592 218.507 177.592 220.44ZM175.692 219.44C175.692 217.773 175.412 216.593 174.852 215.9C174.306 215.193 173.492 214.84 172.412 214.84C171.332 214.84 170.512 215.193 169.952 215.9C169.406 216.593 169.132 217.773 169.132 219.44V222.94C169.132 224.607 169.406 225.793 169.952 226.5C170.512 227.207 171.332 227.56 172.412 227.56C173.492 227.56 174.306 227.207 174.852 226.5C175.412 225.793 175.692 224.607 175.692 222.94V219.44ZM182.233 214.94V214.4H187.673C188.979 214.4 189.959 214.707 190.613 215.32C191.266 215.92 191.593 216.693 191.593 217.64V218.18C191.593 218.873 191.386 219.467 190.973 219.96C190.559 220.453 189.979 220.8 189.233 221C190.166 221.16 190.893 221.513 191.413 222.06C191.933 222.607 192.193 223.293 192.193 224.12V224.66C192.193 225.633 191.853 226.433 191.173 227.06C190.506 227.687 189.506 228 188.173 228H182.233V227.48L183.333 227.36C183.546 227.333 183.673 227.28 183.713 227.2C183.753 227.12 183.773 226.847 183.773 226.38V216.02C183.773 215.553 183.753 215.28 183.713 215.2C183.673 215.12 183.546 215.067 183.333 215.04L182.233 214.94ZM187.673 215.04H185.513V220.76H187.673C189.059 220.76 189.753 219.953 189.753 218.34V217.52C189.753 215.867 189.059 215.04 187.673 215.04ZM188.173 221.4H185.513V227.36H188.173C189.626 227.36 190.353 226.5 190.353 224.78V223.96C190.353 223.133 190.166 222.5 189.793 222.06C189.433 221.62 188.893 221.4 188.173 221.4ZM196.542 214.94V214.4H201.362V214.94L200.262 215.04C200.049 215.067 199.922 215.12 199.882 215.2C199.842 215.28 199.822 215.553 199.822 216.02V226.38C199.822 226.847 199.842 227.12 199.882 227.2C199.922 227.28 200.049 227.333 200.262 227.36L201.362 227.48V228H196.542V227.48L197.642 227.36C197.855 227.333 197.982 227.28 198.022 227.2C198.062 227.12 198.082 226.847 198.082 226.38V216.02C198.082 215.553 198.062 215.28 198.022 215.2C197.982 215.12 197.855 215.067 197.642 215.04L196.542 214.94ZM214.04 224.7H214.58V228H205.48V227.48L206.58 227.36C206.794 227.333 206.92 227.28 206.96 227.2C207 227.12 207.02 226.847 207.02 226.38V216.02C207.02 215.553 207 215.28 206.96 215.2C206.92 215.12 206.794 215.067 206.58 215.04L205.48 214.94V214.4H210.3V214.94L209.2 215.04C208.987 215.067 208.86 215.12 208.82 215.2C208.78 215.28 208.76 215.553 208.76 216.02V227.36H212.38C212.7 227.36 212.927 227.353 213.06 227.34C213.194 227.313 213.28 227.267 213.32 227.2C213.374 227.12 213.42 227 213.46 226.84L214.04 224.7ZM217.973 214.94V214.4H222.793V214.94L221.693 215.04C221.48 215.067 221.353 215.12 221.313 215.2C221.273 215.28 221.253 215.553 221.253 216.02V226.38C221.253 226.847 221.273 227.12 221.313 227.2C221.353 227.28 221.48 227.333 221.693 227.36L222.793 227.48V228H217.973V227.48L219.073 227.36C219.287 227.333 219.413 227.28 219.453 227.2C219.493 227.12 219.513 226.847 219.513 226.38V216.02C219.513 215.553 219.493 215.28 219.453 215.2C219.413 215.12 219.287 215.067 219.073 215.04L217.973 214.94ZM235.972 224.74H236.492V228H226.912V227.48L228.012 227.36C228.225 227.333 228.352 227.28 228.392 227.2C228.432 227.12 228.452 226.847 228.452 226.38V216.02C228.452 215.553 228.432 215.28 228.392 215.2C228.352 215.12 228.225 215.067 228.012 215.04L226.912 214.94V214.4H236.232V217.66H235.732L235.152 215.56C235.112 215.4 235.065 215.287 235.012 215.22C234.972 215.14 234.885 215.093 234.752 215.08C234.618 215.053 234.392 215.04 234.072 215.04H230.192V220.82H232.872C233.192 220.82 233.418 220.813 233.552 220.8C233.685 220.773 233.772 220.727 233.812 220.66C233.865 220.58 233.912 220.46 233.952 220.3L234.332 218.8H234.852V223.48H234.332L233.952 221.98C233.912 221.82 233.865 221.707 233.812 221.64C233.772 221.56 233.685 221.513 233.552 221.5C233.418 221.473 233.192 221.46 232.872 221.46H230.192V227.36H234.312C234.632 227.36 234.858 227.353 234.992 227.34C235.125 227.313 235.212 227.267 235.252 227.2C235.305 227.12 235.352 227 235.392 226.84L235.972 224.74ZM248.973 214.94V214.4H252.793V214.94L251.693 215.04C251.48 215.067 251.353 215.127 251.313 215.22C251.273 215.3 251.253 215.567 251.253 216.02V228H250.273L242.993 215.72V226.38C242.993 226.833 243.013 227.107 243.053 227.2C243.093 227.28 243.22 227.333 243.433 227.36L244.533 227.48V228H240.713V227.48L241.813 227.36C242.026 227.333 242.153 227.28 242.193 227.2C242.233 227.107 242.253 226.833 242.253 226.38V216.02C242.253 215.567 242.233 215.3 242.193 215.22C242.153 215.127 242.026 215.067 241.813 215.04L240.713 214.94V214.4H244.173L250.513 225.12V216.02C250.513 215.567 250.493 215.3 250.453 215.22C250.413 215.127 250.286 215.067 250.073 215.04L248.973 214.94Z" fill="#1F1F1F"/>
<path d="M2.064 161.704V160.36H15.216V161.704L12.576 162.04C12.064 162.104 11.76 162.248 11.664 162.472C11.568 162.664 11.52 163.304 11.52 164.392V177.304L22.896 164.392C23.824 163.336 24.304 162.696 24.336 162.472C24.4 162.248 24.176 162.104 23.664 162.04L21.024 161.704V160.36H30.768V161.704L28.128 162.04C27.808 162.072 27.552 162.136 27.36 162.232C27.168 162.328 26.928 162.536 26.64 162.856C26.352 163.176 25.888 163.688 25.248 164.392L18.528 171.976L26.832 188.968C27.184 189.64 27.456 190.136 27.648 190.456C27.84 190.776 28.064 190.984 28.32 191.08C28.576 191.176 28.928 191.256 29.376 191.32L31.536 191.656V193H22.416L14.64 176.392L11.52 179.944V188.968C11.52 190.056 11.568 190.712 11.664 190.936C11.76 191.128 12.064 191.256 12.576 191.32L15.216 191.656V193H2.064V191.656L4.704 191.32C5.216 191.256 5.52 191.128 5.616 190.936C5.712 190.712 5.76 190.056 5.76 188.968V164.392C5.76 163.304 5.712 162.664 5.616 162.472C5.52 162.248 5.216 162.104 4.704 162.04L2.064 161.704ZM53.628 161.704V160.36H62.94V161.704L60.3 162.04C59.788 162.104 59.484 162.248 59.388 162.472C59.292 162.664 59.244 163.304 59.244 164.392V181.912C59.244 185.752 58.428 188.648 56.796 190.6C55.196 192.52 52.732 193.48 49.404 193.48C45.532 193.48 42.412 192.424 40.044 190.312C37.676 188.2 36.492 185.16 36.492 181.192V164.392C36.492 163.304 36.444 162.664 36.348 162.472C36.252 162.248 35.948 162.104 35.436 162.04L32.796 161.704V160.36H45.948V161.704L43.308 162.04C42.796 162.104 42.492 162.248 42.396 162.472C42.3 162.664 42.252 163.304 42.252 164.392V181.528C42.252 185.112 42.908 187.704 44.22 189.304C45.532 190.904 47.404 191.704 49.836 191.704C52.204 191.704 54.044 190.952 55.356 189.448C56.668 187.912 57.324 185.432 57.324 182.008V164.392C57.324 163.304 57.276 162.664 57.18 162.472C57.084 162.248 56.78 162.104 56.268 162.04L53.628 161.704ZM97.9125 191.656V193H84.7605V191.656L87.4005 191.32C87.9125 191.256 88.2165 191.128 88.3125 190.936C88.4085 190.712 88.4565 190.056 88.4565 188.968V177.352H75.8325V188.968C75.8325 190.056 75.8805 190.712 75.9765 190.936C76.0725 191.128 76.3765 191.256 76.8885 191.32L79.5285 191.656V193H66.3765V191.656L69.0165 191.32C69.5285 191.256 69.8325 191.128 69.9285 190.936C70.0245 190.712 70.0725 190.056 70.0725 188.968V164.392C70.0725 163.304 70.0245 162.664 69.9285 162.472C69.8325 162.248 69.5285 162.104 69.0165 162.04L66.3765 161.704V160.36H79.5285V161.704L76.8885 162.04C76.3765 162.104 76.0725 162.248 75.9765 162.472C75.8805 162.664 75.8325 163.304 75.8325 164.392V175.672H88.4565V164.392C88.4565 163.304 88.4085 162.664 88.3125 162.472C88.2165 162.248 87.9125 162.104 87.4005 162.04L84.7605 161.704V160.36H97.9125V161.704L95.2725 162.04C94.7605 162.104 94.4565 162.248 94.3605 162.472C94.2645 162.664 94.2165 163.304 94.2165 164.392V188.968C94.2165 190.056 94.2645 190.712 94.3605 190.936C94.4565 191.128 94.7605 191.256 95.2725 191.32L97.9125 191.656ZM122.304 161.704V160.36H131.616V161.704L128.976 162.04C128.464 162.104 128.16 162.248 128.064 162.472C127.968 162.664 127.92 163.304 127.92 164.392V193H125.28L107.664 164.536V188.968C107.664 190.056 107.712 190.712 107.808 190.936C107.904 191.128 108.208 191.256 108.72 191.32L111.36 191.656V193H102.048V191.656L104.688 191.32C105.2 191.256 105.504 191.128 105.6 190.936C105.696 190.712 105.744 190.056 105.744 188.968V164.392C105.744 163.304 105.696 162.664 105.6 162.472C105.504 162.248 105.2 162.104 104.688 162.04L102.048 161.704V160.36H111.696L126 183.352V164.392C126 163.304 125.952 162.664 125.856 162.472C125.76 162.248 125.456 162.104 124.944 162.04L122.304 161.704ZM145.514 191.704C146.986 191.704 148.17 191.24 149.066 190.312C149.962 189.352 150.458 188.104 150.554 186.568C150.65 185.032 150.25 183.384 149.354 181.624L153.626 178.84L159.482 189.688C159.962 190.584 160.314 191.112 160.538 191.272C160.794 191.4 161.178 191.496 161.69 191.56L164.042 191.8V193H155.45L152.282 187.048C152.154 188.808 151.466 190.328 150.218 191.608C149.002 192.856 147.178 193.48 144.746 193.48C141.834 193.48 139.466 192.824 137.642 191.512C135.818 190.2 134.906 188.312 134.906 185.848C134.906 184.792 135.146 183.736 135.626 182.68C136.106 181.624 136.97 180.536 138.218 179.416C139.498 178.296 141.322 177.096 143.69 175.816C141.354 174.824 139.578 173.608 138.362 172.168C137.178 170.728 136.586 169.192 136.586 167.56C136.586 166.248 136.954 165.016 137.69 163.864C138.426 162.68 139.466 161.72 140.81 160.984C142.154 160.248 143.754 159.88 145.609 159.88C147.498 159.88 149.114 160.232 150.458 160.936C151.834 161.608 152.874 162.52 153.578 163.672C154.314 164.792 154.682 166.04 154.682 167.416C154.682 169.368 153.978 171.016 152.57 172.36C151.162 173.704 149.37 174.968 147.194 176.152L145.514 177.064C143.722 178.056 142.458 179.224 141.722 180.568C141.018 181.912 140.666 183.512 140.666 185.368C140.666 187.512 141.098 189.112 141.962 190.168C142.858 191.192 144.042 191.704 145.514 191.704ZM142.346 167.224C142.346 168.504 142.538 169.816 142.922 171.16C143.306 172.504 144.09 173.768 145.273 174.952L145.658 174.76C146.874 174.12 147.722 173.176 148.202 171.928C148.682 170.68 148.922 169.208 148.922 167.512C148.922 165.4 148.618 163.88 148.01 162.952C147.434 162.024 146.65 161.56 145.658 161.56C144.698 161.56 143.898 161.976 143.258 162.808C142.65 163.64 142.346 165.112 142.346 167.224ZM164.955 161.704V160.36H179.403C182.923 160.36 185.547 161.176 187.275 162.808C189.035 164.408 189.915 166.552 189.915 169.24V170.344C189.915 173.032 189.035 175.192 187.275 176.824C185.547 178.456 182.923 179.272 179.403 179.272H174.411V188.968C174.411 190.056 174.459 190.712 174.555 190.936C174.651 191.128 174.955 191.256 175.467 191.32L179.067 191.656V193H164.955V191.656L167.595 191.32C168.107 191.256 168.411 191.128 168.507 190.936C168.603 190.712 168.651 190.056 168.651 188.968V164.392C168.651 163.304 168.603 162.664 168.507 162.472C168.411 162.248 168.107 162.104 167.595 162.04L164.955 161.704ZM179.403 162.04H174.411V177.592H179.403C180.811 177.592 181.883 177.032 182.619 175.912C183.387 174.792 183.771 173.256 183.771 171.304V168.28C183.771 166.328 183.387 164.808 182.619 163.72C181.883 162.6 180.811 162.04 179.403 162.04ZM197.695 191.656V193H188.431V191.656L191.071 191.32C191.423 191.256 191.679 191.192 191.839 191.128C191.999 191.032 192.143 190.824 192.271 190.504C192.399 190.184 192.575 189.672 192.799 188.968L201.967 160.36H206.095L215.311 188.968C215.535 189.672 215.711 190.184 215.839 190.504C215.967 190.824 216.111 191.032 216.271 191.128C216.463 191.192 216.719 191.256 217.039 191.32L219.679 191.656V193H206.431V191.656L209.071 191.32C209.583 191.256 209.855 191.128 209.887 190.936C209.951 190.712 209.807 190.056 209.455 188.968L207.631 183.016H196.543L194.671 188.968C194.351 190.056 194.207 190.712 194.239 190.936C194.271 191.128 194.543 191.256 195.055 191.32L197.695 191.656ZM197.119 181.336H207.103L202.159 165.4L197.119 181.336ZM221.439 161.704V160.36H235.935C239.295 160.36 241.887 161.112 243.711 162.616C245.535 164.12 246.447 166.136 246.447 168.664V169.768C246.447 171.688 245.919 173.32 244.863 174.664C243.807 176.008 242.287 176.968 240.303 177.544L246.303 188.968C246.687 189.672 246.975 190.184 247.167 190.504C247.359 190.824 247.535 191.032 247.695 191.128C247.887 191.192 248.143 191.256 248.463 191.32L250.623 191.656V193H241.647L234.399 178.12H230.895V188.968C230.895 190.056 230.943 190.712 231.039 190.936C231.135 191.128 231.439 191.256 231.951 191.32L234.591 191.656V193H221.439V191.656L224.079 191.32C224.591 191.256 224.895 191.128 224.991 190.936C225.087 190.712 225.135 190.056 225.135 188.968V164.392C225.135 163.304 225.087 162.664 224.991 162.472C224.895 162.248 224.591 162.104 224.079 162.04L221.439 161.704ZM235.935 162.04H230.895V176.44H235.935C237.343 176.44 238.415 176.008 239.151 175.144C239.919 174.248 240.303 172.616 240.303 170.248V168.184C240.303 165.816 239.919 164.2 239.151 163.336C238.415 162.472 237.343 162.04 235.935 162.04ZM250.982 160.36H277.382V168.616H276.038L274.502 163.288C274.406 162.872 274.294 162.584 274.166 162.424C274.07 162.232 273.862 162.12 273.542 162.088C273.222 162.056 272.678 162.04 271.91 162.04H267.062V188.968C267.062 190.056 267.11 190.712 267.206 190.936C267.302 191.128 267.606 191.256 268.118 191.32L270.758 191.656V193H257.606V191.656L260.246 191.32C260.758 191.256 261.062 191.128 261.158 190.936C261.254 190.712 261.302 190.056 261.302 188.968V162.04H256.454C255.718 162.04 255.174 162.056 254.822 162.088C254.502 162.12 254.294 162.232 254.198 162.424C254.102 162.584 253.99 162.872 253.862 163.288L252.326 168.616H250.982V160.36ZM300.289 161.704V160.36H309.601V161.704L306.961 162.04C306.449 162.104 306.145 162.248 306.049 162.472C305.953 162.664 305.905 163.304 305.905 164.392V193H303.265L285.649 164.536V188.968C285.649 190.056 285.697 190.712 285.793 190.936C285.889 191.128 286.193 191.256 286.705 191.32L289.345 191.656V193H280.033V191.656L282.673 191.32C283.185 191.256 283.489 191.128 283.585 190.936C283.681 190.712 283.729 190.056 283.729 188.968V164.392C283.729 163.304 283.681 162.664 283.585 162.472C283.489 162.248 283.185 162.104 282.673 162.04L280.033 161.704V160.36H289.681L303.985 183.352V164.392C303.985 163.304 303.937 162.664 303.841 162.472C303.745 162.248 303.441 162.104 302.929 162.04L300.289 161.704ZM335.402 184.744H336.746V193H312.986V191.656L315.626 191.32C316.138 191.256 316.442 191.128 316.538 190.936C316.634 190.712 316.682 190.056 316.682 188.968V164.392C316.682 163.304 316.634 162.664 316.538 162.472C316.442 162.248 316.138 162.104 315.626 162.04L312.986 161.704V160.36H336.266V168.616H334.922L333.386 163.288C333.29 162.904 333.178 162.632 333.05 162.472C332.954 162.28 332.746 162.168 332.426 162.136C332.106 162.072 331.562 162.04 330.794 162.04H322.442V175.672H327.914C328.682 175.672 329.226 175.656 329.546 175.624C329.866 175.56 330.074 175.448 330.17 175.288C330.298 175.096 330.41 174.808 330.506 174.424L331.562 170.536H332.906V182.488H331.562L330.506 178.6C330.41 178.216 330.298 177.944 330.17 177.784C330.074 177.592 329.866 177.48 329.546 177.448C329.226 177.384 328.682 177.352 327.914 177.352H322.442V191.32H331.274C332.042 191.32 332.586 191.304 332.906 191.272C333.226 191.208 333.434 191.096 333.53 190.936C333.658 190.744 333.77 190.456 333.866 190.072L335.402 184.744ZM341.908 161.704V160.36H356.404C359.764 160.36 362.356 161.112 364.18 162.616C366.004 164.12 366.916 166.136 366.916 168.664V169.768C366.916 171.688 366.388 173.32 365.332 174.664C364.276 176.008 362.756 176.968 360.772 177.544L366.772 188.968C367.156 189.672 367.444 190.184 367.636 190.504C367.828 190.824 368.004 191.032 368.164 191.128C368.356 191.192 368.612 191.256 368.932 191.32L371.092 191.656V193H362.116L354.868 178.12H351.364V188.968C351.364 190.056 351.412 190.712 351.508 190.936C351.604 191.128 351.908 191.256 352.42 191.32L355.06 191.656V193H341.908V191.656L344.548 191.32C345.06 191.256 345.364 191.128 345.46 190.936C345.556 190.712 345.604 190.056 345.604 188.968V164.392C345.604 163.304 345.556 162.664 345.46 162.472C345.364 162.248 345.06 162.104 344.548 162.04L341.908 161.704ZM356.404 162.04H351.364V176.44H356.404C357.812 176.44 358.884 176.008 359.62 175.144C360.388 174.248 360.772 172.616 360.772 170.248V168.184C360.772 165.816 360.388 164.2 359.62 163.336C358.884 162.472 357.812 162.04 356.404 162.04Z" fill="#1F1F1F"/>
<rect x="164" width="44" height="108" fill="#1F1F1F"/>
<path d="M171.064 61.704V60.36H184.216V61.704L181.576 62.04C181.064 62.104 180.76 62.248 180.664 62.472C180.568 62.664 180.52 63.304 180.52 64.392V77.304L191.896 64.392C192.824 63.336 193.304 62.696 193.336 62.472C193.4 62.248 193.176 62.104 192.664 62.04L190.024 61.704V60.36H199.768V61.704L197.128 62.04C196.808 62.072 196.552 62.136 196.36 62.232C196.168 62.328 195.928 62.536 195.64 62.856C195.352 63.176 194.888 63.688 194.248 64.392L187.528 71.976L195.832 88.968C196.184 89.64 196.456 90.136 196.648 90.456C196.84 90.776 197.064 90.984 197.32 91.08C197.576 91.176 197.928 91.256 198.376 91.32L200.536 91.656V93H191.416L183.64 76.392L180.52 79.944V88.968C180.52 90.056 180.568 90.712 180.664 90.936C180.76 91.128 181.064 91.256 181.576 91.32L184.216 91.656V93H171.064V91.656L173.704 91.32C174.216 91.256 174.52 91.128 174.616 90.936C174.712 90.712 174.76 90.056 174.76 88.968V64.392C174.76 63.304 174.712 62.664 174.616 62.472C174.52 62.248 174.216 62.104 173.704 62.04L171.064 61.704Z" fill="white"/>
</svg>
