<svg xmlns="http://www.w3.org/2000/svg" version="1.1" xmlns:xlink="http://www.w3.org/1999/xlink" width="256" height="512"><svg width="256" height="512" viewBox="0 0 256 512" fill="none" xmlns="http://www.w3.org/2000/svg">
<rect width="256" height="512" fill="#1F1F1F"></rect>
<path d="M40.9 206.4V198H123.1V206.4L106.6 208.5C103.4 208.9 101.5 209.8 100.9 211.2C100.3 212.4 100 216.4 100 223.2V303.9L171.1 223.2C176.9 216.6 179.9 212.6 180.1 211.2C180.5 209.8 179.1 208.9 175.9 208.5L159.4 206.4V198H220.3V206.4L203.8 208.5C201.8 208.7 200.2 209.1 199 209.7C197.8 210.3 196.3 211.6 194.5 213.6C192.7 215.6 189.8 218.8 185.8 223.2L143.8 270.6L195.7 376.8C197.9 381 199.6 384.1 200.8 386.1C202 388.1 203.4 389.4 205 390C206.6 390.6 208.8 391.1 211.6 391.5L225.1 393.6V402H168.1L119.5 298.2L100 320.4V376.8C100 383.6 100.3 387.7 100.9 389.1C101.5 390.3 103.4 391.1 106.6 391.5L123.1 393.6V402H40.9V393.6L57.4 391.5C60.6 391.1 62.5 390.3 63.1 389.1C63.7 387.7 64 383.6 64 376.8V223.2C64 216.4 63.7 212.4 63.1 211.2C62.5 209.8 60.6 208.9 57.4 208.5L40.9 206.4Z" fill="white"></path>
</svg><style>@media (prefers-color-scheme: light) { :root { filter: none; } }
@media (prefers-color-scheme: dark) { :root { filter: none; } }
</style></svg>